<mxfile host="app.diagrams.net" modified="2023-05-07T15:44:52.247Z" agent="Mozilla/5.0 (Windows NT 10.0; Win64; x64) AppleWebKit/537.36 (KHTML, like Gecko) Chrome/113.0.0.0 Safari/537.36" etag="_xvyUVYuuSebbSvmbNPB" version="21.2.9" type="github">
  <diagram name="第 1 页" id="fKJzzYVBa2iHSLgZM2VF">
    <mxGraphModel dx="1185" dy="664" grid="1" gridSize="10" guides="1" tooltips="1" connect="1" arrows="1" fold="1" page="1" pageScale="1" pageWidth="827" pageHeight="1169" math="0" shadow="0">
      <root>
        <mxCell id="0" />
        <mxCell id="1" parent="0" />
        <mxCell id="yqIKY193IE1kzDxMEN5g-1" value="Student" style="swimlane;childLayout=stackLayout;horizontal=1;startSize=50;horizontalStack=0;rounded=1;fontSize=14;fontStyle=0;strokeWidth=2;resizeParent=0;resizeLast=1;shadow=0;dashed=0;align=center;arcSize=4;whiteSpace=wrap;html=1;fillColor=#dae8fc;strokeColor=#6c8ebf;" vertex="1" parent="1">
          <mxGeometry x="60" y="150" width="160" height="120" as="geometry" />
        </mxCell>
        <mxCell id="yqIKY193IE1kzDxMEN5g-2" value="firstName (string)&lt;br&gt;lastName (string)&lt;br&gt;email (string)&lt;br&gt;dateRegistered (dateTime)" style="align=left;strokeColor=none;fillColor=none;spacingLeft=4;fontSize=12;verticalAlign=top;resizable=0;rotatable=0;part=1;html=1;" vertex="1" parent="yqIKY193IE1kzDxMEN5g-1">
          <mxGeometry y="50" width="160" height="70" as="geometry" />
        </mxCell>
        <mxCell id="yqIKY193IE1kzDxMEN5g-3" value="Course" style="swimlane;childLayout=stackLayout;horizontal=1;startSize=50;horizontalStack=0;rounded=1;fontSize=14;fontStyle=0;strokeWidth=2;resizeParent=0;resizeLast=1;shadow=0;dashed=0;align=center;arcSize=4;whiteSpace=wrap;html=1;fillColor=#dae8fc;strokeColor=#6c8ebf;" vertex="1" parent="1">
          <mxGeometry x="460" y="150" width="160" height="120" as="geometry">
            <mxRectangle x="460" y="150" width="80" height="50" as="alternateBounds" />
          </mxGeometry>
        </mxCell>
        <mxCell id="yqIKY193IE1kzDxMEN5g-4" value="title (string)&lt;br&gt;price (float)&lt;br&gt;instructor (string&lt;br&gt;tags (string)" style="align=left;strokeColor=none;fillColor=none;spacingLeft=4;fontSize=12;verticalAlign=top;resizable=0;rotatable=0;part=1;html=1;" vertex="1" parent="yqIKY193IE1kzDxMEN5g-3">
          <mxGeometry y="50" width="160" height="70" as="geometry" />
        </mxCell>
        <mxCell id="yqIKY193IE1kzDxMEN5g-16" value="Enrollment" style="swimlane;childLayout=stackLayout;horizontal=1;startSize=50;horizontalStack=0;rounded=1;fontSize=14;fontStyle=0;strokeWidth=2;resizeParent=0;resizeLast=1;shadow=0;dashed=0;align=center;arcSize=4;whiteSpace=wrap;html=1;fillColor=#dae8fc;strokeColor=#6c8ebf;" vertex="1" parent="1">
          <mxGeometry x="280" y="320" width="160" height="120" as="geometry" />
        </mxCell>
        <mxCell id="yqIKY193IE1kzDxMEN5g-17" value="date (dateTime)&lt;br&gt;price (float)" style="align=left;strokeColor=none;fillColor=none;spacingLeft=4;fontSize=12;verticalAlign=top;resizable=0;rotatable=0;part=1;html=1;" vertex="1" parent="yqIKY193IE1kzDxMEN5g-16">
          <mxGeometry y="50" width="160" height="70" as="geometry" />
        </mxCell>
        <mxCell id="yqIKY193IE1kzDxMEN5g-18" style="edgeStyle=orthogonalEdgeStyle;rounded=0;orthogonalLoop=1;jettySize=auto;html=1;exitX=1;exitY=0.5;exitDx=0;exitDy=0;entryX=0;entryY=0.5;entryDx=0;entryDy=0;fontFamily=Helvetica;fontSize=14;fontColor=default;startSize=50;endArrow=ERmany;endFill=0;" edge="1" parent="1" source="yqIKY193IE1kzDxMEN5g-2" target="yqIKY193IE1kzDxMEN5g-17">
          <mxGeometry relative="1" as="geometry" />
        </mxCell>
        <mxCell id="yqIKY193IE1kzDxMEN5g-19" style="edgeStyle=orthogonalEdgeStyle;rounded=0;orthogonalLoop=1;jettySize=auto;html=1;exitX=1;exitY=0.25;exitDx=0;exitDy=0;entryX=1;entryY=0.25;entryDx=0;entryDy=0;fontFamily=Helvetica;fontSize=14;fontColor=default;startSize=6;startArrow=ERmany;startFill=0;" edge="1" parent="1" source="yqIKY193IE1kzDxMEN5g-17" target="yqIKY193IE1kzDxMEN5g-4">
          <mxGeometry relative="1" as="geometry" />
        </mxCell>
      </root>
    </mxGraphModel>
  </diagram>
</mxfile>
